<svg width="154" height="432" fill="none" xmlns="http://www.w3.org/2000/svg"><mask id="mask0_9_4" style="mask-type:alpha" maskUnits="userSpaceOnUse" x="0" y="0" width="154" height="432"><path fill="#C4C4C4" d="M0 0h154v432H0z"/></mask><g mask="url(#mask0_9_4)" fill-rule="evenodd" clip-rule="evenodd"><path d="M177.5 400c98.031 0 177.5-79.469 177.5-177.5S275.531 45 177.5 45C79.47 45 0 124.469 0 222.5S79.47 400 177.5 400z" fill="url(#paint0_linear_9_4)"/><path d="M61.5 168c33.966 0 61.5-27.534 61.5-61.5S95.466 45 61.5 45C27.535 45 0 72.534 0 106.5S27.535 168 61.5 168z" fill="url(#paint1_linear_9_4)"/></g><defs><linearGradient id="paint0_linear_9_4" x1="200.172" y1="483.922" x2="440.821" y2="235.657" gradientUnits="userSpaceOnUse"><stop stop-color="#CD10FF"/><stop offset="1" stop-color="#9F06FF"/></linearGradient><linearGradient id="paint1_linear_9_4" x1="63.658" y1="194.499" x2="126.315" y2="107.342" gradientUnits="userSpaceOnUse"><stop stop-color="#FFD7A9"/><stop offset="1" stop-color="#FFAE70"/></linearGradient></defs></svg>