<svg width="40" height="33" fill="none" xmlns="http://www.w3.org/2000/svg"><path fill-rule="evenodd" clip-rule="evenodd" d="M28.667 27.977c-1.469 2.33-4.865 2.33-6.334 0L14.62 15.74c-1.572-2.493.22-5.74 3.166-5.74h15.43c2.946 0 4.738 3.247 3.166 5.74l-7.714 12.237z" fill="url(#paint0_linear_5_4)"/><path fill-rule="evenodd" clip-rule="evenodd" d="M11.333 5.023c1.469-2.33 4.865-2.33 6.334 0L25.38 17.26c1.572 2.493-.22 5.74-3.166 5.74H6.785c-2.946 0-4.738-3.247-3.166-5.74l7.714-12.237z" fill="url(#paint1_linear_5_4)"/><defs><linearGradient id="paint0_linear_5_4" x1="24.991" y1="5.045" x2="14.354" y2="23.701" gradientUnits="userSpaceOnUse"><stop stop-color="#FFD7A9"/><stop offset="1" stop-color="#FFAE70"/></linearGradient><linearGradient id="paint1_linear_5_4" x1="16.352" y1="28.437" x2="31.427" y2="8.828" gradientUnits="userSpaceOnUse"><stop stop-color="#CD10FF"/><stop offset="1" stop-color="#9F06FF"/></linearGradient></defs></svg>